<svg width="142" height="244" viewBox="0 0 142 244" fill="none" xmlns="http://www.w3.org/2000/svg">
<g clip-path="url(#clip0_4_228)">
<path d="M100.85 13.78C110.05 16.31 129 19.86 136.53 23.67C143.52 27.21 141.84 33.21 139.97 39.19C134 58.24 123.27 83.61 115.01 102.03C113.94 104.41 112.95 107.27 111.55 109.44C105.04 119.47 79.81 120.99 69.45 126.16C69.07 126.35 67.97 127.04 67.77 127.34C66.69 128.95 67.1 133.01 65.1 135.47C62.56 138.61 60.53 137.84 58.01 140.36C52.41 156.83 46.89 173.34 41.02 189.72C36.5 202.33 29.72 226.35 23.6 236.97C17.25 247.97 0.949994 243.41 0.0299936 231.82C-0.510006 225.04 12.07 198.83 15.23 190.69C21.52 174.5 28.02 158.15 33.77 141.77C35.09 138 38.98 129.18 38.08 125.74C37.61 123.94 35.58 122.31 35.18 120.28C34.85 118.62 35.32 115.91 35.13 114.48C34.24 107.85 15.59 92.49 16.75 83.22L38.92 5.05003C40.02 2.09003 42.73 0.250025 45.88 0.0200254C54.45 -0.589975 90.18 10.85 100.86 13.78H100.85Z" fill="#44331C"/>
<path d="M136.04 30.86C135.67 28.38 133.46 28.18 131.6 27.5C105.87 18.04 75.23 14.07 49.05 4.95998C44.37 4.30998 44.04 4.94998 42.54 8.95998C34.48 30.58 30.99 56.42 22.69 78.31C17.01 90.31 38.95 104.28 39.89 113.92C40.09 115.96 39.33 117.19 39.91 119.47C40.51 121.85 43.36 123.68 43.48 126.48C43.52 127.46 43.16 128.8 42.67 130.31C32.64 158.41 16.55 199.58 5.53 227.29C2.39 236.06 13.45 241.1 18.11 233.46L49.42 142.9C49.77 142.32 49.98 141.62 50.12 140.88V140.87C50.6 138.27 50.15 135.06 51.18 133.86C52.48 132.35 55.45 133.04 57.18 132.61C61.67 131.51 59.81 127.46 62.06 124.25C66.67 117.68 97.95 115.02 105.11 107.79C109.33 103.53 122.17 68.57 125.31 60.53C127.09 55.98 136.49 33.94 136.03 30.87L136.04 30.86Z" fill="#21FF72"/>
<path d="M112.93 38.76C112.71 38.42 115.1 31.18 115.46 30.99C115.82 30.8 122.91 32.85 123.11 33.2C123.38 33.66 121.26 40.04 120.73 40.31C120.06 40.65 113.15 39.1 112.93 38.76Z" fill="#44331C"/>
<path d="M111.77 29.9C112.17 30.56 110.13 36.92 109.4 37.37C109.04 37.6 102.3 35.99 102.09 35.68C101.71 35.13 103.94 28.23 104.28 28.02C104.62 27.81 111.57 29.57 111.77 29.9Z" fill="#44331C"/>
<path d="M78.63 20.39C78.88 20.73 76.77 28.25 76.41 28.46C76.08 28.66 69.13 26.81 68.9 26.5C68.65 26.16 70.76 18.64 71.12 18.43C71.45 18.23 78.4 20.08 78.63 20.4V20.39Z" fill="#44331C"/>
<path d="M87.52 31.21C87.13 31.45 80.28 29.86 80.07 29.54C79.69 28.95 81.92 22.1 82.25 21.89C82.65 21.64 89.46 23.4 89.67 23.72C89.88 24.04 87.85 31.01 87.52 31.21Z" fill="#44331C"/>
<path d="M97.01 37.69C97.3 38.12 95.26 45.11 94.8 45.35C94.46 45.53 87.52 44.1 87.27 43.8C87.01 43.49 89.19 36.25 89.54 36.03C89.86 35.82 96.79 37.38 97.01 37.69Z" fill="#44331C"/>
<path d="M115.42 54.97C115.62 55.31 113.26 62.14 112.93 62.34C112.24 62.78 105.74 61.13 105.51 60.81C105.28 60.49 107.56 53.33 107.9 53.11C108.24 52.89 115.23 54.63 115.42 54.96V54.97Z" fill="#44331C"/>
<path d="M79.76 65.81C79.47 65.46 81.91 58.35 82.25 58.14C82.91 57.73 89.08 59.44 89.38 59.96C89.72 60.56 87.37 67.46 87.01 67.65C86.68 67.82 80 66.1 79.76 65.81Z" fill="#44331C"/>
<path d="M46.26 48.03C46.42 48.38 44.4 55.18 44.08 55.38C43.68 55.63 36.88 53.87 36.66 53.56C36.38 53.17 38.48 46.25 38.82 46.07C39.39 45.76 46.05 47.58 46.26 48.03Z" fill="#44331C"/>
<path d="M57.15 50.79C57.37 51.13 55.26 58.34 54.91 58.54C54.58 58.73 47.74 56.94 47.53 56.62C47.32 56.3 49.35 49.33 49.69 49.13C50.2 48.83 56.94 50.46 57.15 50.79Z" fill="#44331C"/>
<path d="M93.4 48.83C93.6 49.18 91.26 56.31 90.91 56.5C90.59 56.67 83.99 54.98 83.78 54.68C83.32 54.03 85.77 47.19 86.17 46.98C86.5 46.8 93.22 48.51 93.41 48.83H93.4Z" fill="#44331C"/>
<path d="M40.2 42.66C39.96 42.32 42.09 35.11 42.45 34.92C42.86 34.7 49.29 36.43 49.52 36.83C49.94 37.56 47.89 44.28 47.44 44.51C47.11 44.68 40.42 42.97 40.2 42.66Z" fill="#44331C"/>
<path d="M58.54 47.39C58.21 47.58 51.3 46.03 51.05 45.74C50.8 45.45 52.93 38.28 53.26 38.07C53.87 37.69 60.46 39.53 60.68 39.89C60.88 40.22 58.87 47.2 58.53 47.4L58.54 47.39Z" fill="#44331C"/>
<path d="M35.16 56.9C35.5 56.71 42.36 58.8 42.55 59.13C42.84 59.62 40.78 66.34 40.46 66.54C40.14 66.74 33.25 64.78 33.05 64.42C32.85 64.08 34.83 57.09 35.17 56.89L35.16 56.9Z" fill="#44331C"/>
<path d="M111.24 65.83C111.52 66.16 109.09 73.29 108.75 73.51C108.44 73.71 101.74 72.23 101.51 71.94C101.07 71.39 103.43 64.56 104 64.27C104.33 64.11 111 65.54 111.24 65.83Z" fill="#44331C"/>
<path d="M64.12 28.49C64.42 28.9 62.2 36.44 61.78 36.54C61.42 36.62 54.92 34.87 54.7 34.57C54.46 34.24 56.32 27.05 56.64 26.82C56.96 26.59 63.89 28.18 64.12 28.49Z" fill="#44331C"/>
<path d="M84.18 42.09C83.6 42.5 76.75 40.78 76.52 40.47C76.17 39.99 78.29 33.27 78.62 33.06C79.23 32.67 86.1 34.62 86.32 35.16C86.45 35.5 84.47 41.89 84.18 42.1V42.09Z" fill="#44331C"/>
<path d="M97.87 70.84C97.54 71.02 90.87 69.17 90.64 68.88C90.38 68.57 92.55 61.33 92.9 61.12C93.4 60.82 100.16 62.66 100.37 63.21C100.51 63.59 98.23 70.64 97.88 70.84H97.87Z" fill="#44331C"/>
<path d="M104.26 51.91C104.56 52.34 102.39 59.07 102.07 59.28C101.46 59.67 94.77 58.04 94.55 57.72C94.29 57.36 96.51 50.61 97.04 50.34C97.57 50.07 104.05 51.6 104.26 51.91Z" fill="#44331C"/>
<path d="M61.94 48.51C61.72 48.17 63.83 40.97 64.17 40.75C64.48 40.55 71.06 42.36 71.27 42.66C71.74 43.33 69.64 50.1 69.17 50.36C68.84 50.54 62.15 48.82 61.94 48.5V48.51Z" fill="#44331C"/>
<path d="M89.47 92.54C89.15 92.73 82.5 91.18 82.28 90.88C81.93 90.4 84.45 83.31 84.95 83.12C85.35 82.96 91.8 84.76 91.99 85.23C92.13 85.59 89.8 92.34 89.47 92.54Z" fill="#44331C"/>
<path d="M58.03 23.42C57.81 23.08 59.89 15.84 60.24 15.64C60.59 15.44 67.46 17.52 67.64 17.86C67.82 18.2 65.62 25.09 65.27 25.26C64.92 25.43 58.23 23.74 58.03 23.42Z" fill="#44331C"/>
<path d="M100.65 26.81C100.85 27.14 98.76 33.98 98.45 34.2C98.14 34.42 91.17 32.92 90.94 32.61C90.66 32.22 92.8 25.17 93.13 24.95C93.46 24.73 100.45 26.47 100.65 26.8V26.81Z" fill="#44331C"/>
<path d="M86.45 79.74C86.23 79.4 88.64 72.18 88.99 71.99C89.31 71.81 95.87 73.59 96.08 73.89C96.4 74.33 93.89 81.37 93.41 81.59C93.08 81.74 86.64 80.05 86.45 79.75V79.74Z" fill="#44331C"/>
<path d="M37.07 77.49C36.75 77.71 29.83 76.14 29.6 75.83C29.29 75.42 31.41 68.7 31.8 68.46C32.54 68 38.57 69.58 38.92 70.28C39.19 70.81 37.38 77.28 37.07 77.49Z" fill="#44331C"/>
<path d="M85.29 70.88C85.68 71.54 83.48 78 83.11 78.23C82.39 78.69 76.24 77.08 75.97 76.7C75.72 76.36 77.79 69.41 78.11 69.19C78.58 68.87 85.1 70.56 85.29 70.87V70.88Z" fill="#44331C"/>
<path d="M49.61 72.83C49.85 73.21 48 80.34 47.67 80.56C47.18 80.9 40.93 79.31 40.58 78.64C40.21 77.92 42.35 71.44 42.67 71.23C42.99 71.02 49.42 72.52 49.61 72.82V72.83Z" fill="#44331C"/>
<path d="M74.62 80.08C74.96 79.98 81.25 81.72 81.4 82.14C81.53 82.52 79 89.49 78.64 89.66C78.32 89.82 71.85 88.06 71.69 87.65C71.55 87.27 74.08 80.23 74.62 80.07V80.08Z" fill="#44331C"/>
<path d="M61.35 85.05C60.94 84.61 63.27 77.68 63.86 77.38C64.54 77.04 70.39 78.58 70.7 79.2C71.05 79.91 68.94 86 68.32 86.31C67.83 86.56 61.59 85.31 61.35 85.05Z" fill="#44331C"/>
<path d="M53.24 61.95C53.61 62.49 51.47 69.38 51.06 69.59C50.74 69.75 44.32 67.95 44.17 67.41C44.02 66.87 45.75 60.48 46.06 60.27C46.37 60.06 53.04 61.64 53.25 61.95H53.24Z" fill="#44331C"/>
<path d="M82.24 45.49C82.48 45.81 80.38 52.95 80.04 53.16C79.73 53.36 73.11 51.64 72.9 51.34C72.67 51.02 74.71 44.04 75.03 43.81C75.33 43.59 82.02 45.19 82.24 45.49Z" fill="#44331C"/>
<path d="M98.43 46.58C98.19 46.27 100.36 39.31 100.66 39.06C100.96 38.81 107.87 40.68 108.07 41C108.27 41.32 106.03 48.24 105.69 48.42C105.35 48.6 98.65 46.89 98.43 46.59V46.58Z" fill="#44331C"/>
<path d="M119.34 44.08C119.57 44.39 117.18 51.29 116.85 51.49C116.52 51.69 109.41 49.62 109.32 49.24C109.23 48.86 111.5 42.32 111.83 42.13C112.16 41.94 119.12 43.77 119.35 44.08H119.34Z" fill="#44331C"/>
<path d="M54.64 22.03C54.32 22.23 47.47 20.43 47.25 20.11C47.03 19.79 48.81 13.09 49.1 12.86C49.45 12.58 56.26 14.39 56.5 14.8C56.69 15.12 54.96 21.82 54.64 22.02V22.03Z" fill="#44331C"/>
<path d="M85.31 103.44C85.01 103.66 78.32 102.06 78.08 101.77C77.73 101.34 80.17 94.62 80.58 94.38C81.21 94.02 87.19 95.8 87.42 96.2C87.62 96.53 85.61 103.22 85.3 103.44H85.31Z" fill="#44331C"/>
<path d="M56.3 87.04C56.55 87.46 54.4 94.29 54.07 94.49C53.58 94.78 47.02 92.89 46.87 92.42C46.76 92.07 49.05 85.66 49.36 85.46C49.89 85.12 56.12 86.74 56.3 87.05V87.04Z" fill="#44331C"/>
<path d="M43.81 31.23C43.62 30.91 45.46 24.23 45.76 24.02C46.06 23.81 52.96 25.63 53.16 25.95C53.36 26.27 51.37 32.9 51.05 33.09C50.73 33.28 44 31.56 43.81 31.23Z" fill="#44331C"/>
<path d="M107.07 76.97C107.3 77.29 104.88 84.26 104.56 84.49C104.25 84.71 97.53 82.84 97.32 82.53C97.09 82.21 99.49 75.21 99.83 75C100.15 74.81 106.85 76.65 107.07 76.96V76.97Z" fill="#44331C"/>
<path d="M67.77 53.83C68.01 54.14 65.86 61.14 65.52 61.34C65.2 61.53 58.55 59.94 58.29 59.68C58.02 59.4 60.31 52.53 60.8 52.28C61.12 52.12 67.55 53.54 67.77 53.83Z" fill="#44331C"/>
<path d="M63.84 65.01C64.05 65.33 61.98 72.2 61.65 72.39C61.34 72.57 54.99 70.86 54.79 70.57C54.5 70.16 56.34 63.55 56.65 63.34C56.96 63.13 63.64 64.7 63.84 65.01Z" fill="#44331C"/>
<path d="M78.64 56.9C78.87 57.22 76.48 64.11 76.14 64.31C75.83 64.49 69.38 62.75 69.17 62.46C68.94 62.14 71.06 55.14 71.4 54.95C71.74 54.76 78.42 56.6 78.64 56.9Z" fill="#44331C"/>
<path d="M74.74 67.77C74.99 68.07 72.81 75.07 72.48 75.27C72.16 75.46 65.5 73.91 65.26 73.62C65.01 73.32 67.43 66.42 67.76 66.21C68.06 66.02 74.51 67.49 74.74 67.77Z" fill="#44331C"/>
<path d="M65.54 37.38C65.27 37.1 67.69 30.17 68.03 29.99C68.35 29.83 74.72 31.5 74.9 31.8C75.08 32.1 73.11 38.74 72.79 38.94C72.47 39.14 65.79 37.65 65.53 37.38H65.54Z" fill="#44331C"/>
<path d="M76.93 92.89C77.25 93.33 75.03 100.15 74.69 100.35C74.35 100.55 67.98 98.99 67.78 98.69C67.56 98.36 69.94 91.4 70.28 91.2C70.57 91.03 76.72 92.61 76.92 92.89H76.93Z" fill="#44331C"/>
<path d="M45.73 83.95C45.97 84.25 44.09 91.22 43.78 91.45C43.49 91.66 37.13 89.82 36.94 89.52C36.75 89.22 38.51 82.78 38.81 82.58C39.16 82.34 45.51 83.68 45.73 83.95Z" fill="#44331C"/>
<path d="M60.24 76.14C60.43 76.47 58.31 83.16 58.01 83.38C57.71 83.6 50.86 81.66 50.78 81.29C50.7 80.92 52.96 74.37 53.29 74.18C53.62 73.99 60.07 75.82 60.25 76.13L60.24 76.14Z" fill="#44331C"/>
<path d="M66.93 90.07C67.16 90.38 64.72 97.09 64.39 97.29C64.08 97.47 57.66 95.93 57.45 95.64C57.22 95.34 59.63 88.72 59.95 88.52C60.25 88.33 66.71 89.79 66.93 90.08V90.07Z" fill="#44331C"/>
<path d="M92.85 93.41C92.62 93.1 95.3 86.48 95.63 86.28C95.96 86.08 102.02 87.8 102.21 88.11C102.45 88.49 100.16 95.06 99.83 95.25C99.5 95.44 93.06 93.7 92.84 93.41H92.85Z" fill="#44331C"/>
<path d="M43.51 102.61C43.31 102.34 45.19 96.4 45.47 96.2C45.75 96 51.81 97.7 52.04 98.15C52.33 98.73 50.1 104.45 49.77 104.55C49.44 104.65 43.71 102.87 43.52 102.61H43.51Z" fill="#44331C"/>
<path d="M72.22 104.02C72.39 104.28 70.61 109.55 70.28 109.74C69.99 109.9 64.03 108.47 63.87 108.18C63.71 107.89 65.85 102.51 66.11 102.33C66.37 102.15 72.06 103.75 72.23 104.01L72.22 104.02Z" fill="#44331C"/>
<path d="M56.81 100.44C61.06 98.94 61.48 105.25 57.66 104.79C55.28 104.5 55.22 101 56.81 100.44Z" fill="#44331C"/>
<path d="M94.73 101.98C91.28 104.71 88.62 97.49 93.55 98.15C95.69 98.43 95.89 101.06 94.73 101.98Z" fill="#44331C"/>
<path d="M33.41 81.22C35.37 83.56 31.02 86.75 29.56 84.09C27.97 81.2 32.02 79.56 33.41 81.22Z" fill="#44331C"/>
</g>
<defs>
<clipPath id="clip0_4_228">
<rect width="141.61" height="243.26" fill="white"/>
</clipPath>
</defs>
</svg>
